<?xml version="1.0" encoding="utf-8"?>
<!-- Generator: Adobe Illustrator 22.0.1, SVG Export Plug-In . SVG Version: 6.00 Build 0)  -->
<svg version="1.1" id="Layer_1" xmlns="http://www.w3.org/2000/svg" xmlns:xlink="http://www.w3.org/1999/xlink" x="0px" y="0px"
	 viewBox="0 0 61.6 50" style="enable-background:new 0 0 61.6 50;" xml:space="preserve">
<g>
	<path d="M2.2,36.5L7.4,24c-1.8-5.9,0-11.5,4.8-15.5C19,3,29.6,2.4,37.9,7l-1.2,2.2C28,4.3,18.7,6.4,13.9,10.5
		c-4.1,3.4-5.5,8.2-3.9,13.2l0.1,0.4l-3.4,8.3l7.5-2.5l0.5,0.5c2.4,2.1,7.5,3.1,11.2,3.7l-0.4,2.5c-4-0.6-8.9-1.6-11.9-3.8L2.2,36.5
		z"/>
	<path d="M56.9,47.1L43.3,41c-6.7,1-13.4-0.8-18.2-4.8c-3.8-3.2-5.9-7.5-5.9-12.1c0-9.5,9.2-17.1,20.5-17.1
		c11.4,0,20.7,7.7,20.7,17.1c0,4.8-2.3,9.3-6.4,12.4L56.9,47.1z M43.6,38.4l9.4,4.3l-2-7.1l0.7-0.5c3.9-2.7,6.1-6.7,6.1-10.9
		c0-8.1-8.1-14.6-18.2-14.6c-9.9,0-18,6.6-18,14.6c0,3.8,1.8,7.4,5,10.2c4.3,3.6,10.5,5.2,16.5,4.2L43.6,38.4z"/>
</g>
</svg>
