<svg xmlns="http://www.w3.org/2000/svg" viewBox="0 0 24 30" x="0px" y="0px"><title>30-File</title><g data-name="30-File"><path d="M19,24H5a3,3,0,0,1-3-3V7a1,1,0,0,1,.29-.71l6-6A1,1,0,0,1,9,0H19a3,3,0,0,1,3,3V21A3,3,0,0,1,19,24ZM4,7.41V21a1,1,0,0,0,1,1H19a1,1,0,0,0,1-1V3a1,1,0,0,0-1-1H9.41Z"/><path d="M9,8H3a1,1,0,0,1-.71-1.71l6-6A1,1,0,0,1,10,1V7A1,1,0,0,1,9,8ZM5.41,6H8V3.41Z"/><path d="M16,14H8a1,1,0,0,1,0-2h8a1,1,0,0,1,0,2Z"/><path d="M16,18H8a1,1,0,0,1,0-2h8a1,1,0,0,1,0,2Z"/></g><text x="0" y="39" fill="#000000" font-size="5px" font-weight="bold" font-family="'Helvetica Neue', Helvetica, Arial-Unicode, Arial, Sans-serif">Created by libertetstudio</text><text x="0" y="44" fill="#000000" font-size="5px" font-weight="bold" font-family="'Helvetica Neue', Helvetica, Arial-Unicode, Arial, Sans-serif">from the Noun Project</text></svg>