<?xml version="1.0" encoding="utf-8"?>
<!-- Generator: Adobe Illustrator 22.0.1, SVG Export Plug-In . SVG Version: 6.00 Build 0)  -->
<svg version="1.1" id="Layer_1" xmlns="http://www.w3.org/2000/svg" xmlns:xlink="http://www.w3.org/1999/xlink" x="0px" y="0px"
	 viewBox="0 0 61.6 50" style="enable-background:new 0 0 61.6 50;" xml:space="preserve">
<g>
	<g>
		<path d="M52,7H11.6c-2.5,0-4.5,2-4.5,4.5v27c0,2.5,2,4.5,4.5,4.5H52c2.5,0,4.5-2,4.5-4.5v-27C56.5,9,54.5,7,52,7z M11.6,9.3H52
			c0.3,0,0.5,0.1,0.8,0.2L33.3,28.8c-0.4,0.4-1,0.7-1.5,0.7c-0.6,0-1.1-0.2-1.5-0.7L10.8,9.4C11.1,9.3,11.3,9.3,11.6,9.3z M9.3,38.4
			V11.5c0-0.2,0-0.3,0.1-0.4L23.2,25L9.3,38.8C9.3,38.7,9.3,38.6,9.3,38.4z M52,40.7H11.6c-0.3,0-0.5-0.1-0.8-0.2l14-14l3.8,3.8
			c0.9,0.9,2,1.3,3.1,1.3c1.1,0,2.3-0.5,3.1-1.3l3.8-3.8l14,14C52.5,40.6,52.2,40.7,52,40.7z M54.2,38.4c0,0.2,0,0.3-0.1,0.4
			L40.3,25l13.9-13.9c0,0.2,0.1,0.3,0.1,0.4L54.2,38.4L54.2,38.4z"/>
	</g>
</g>
</svg>
