<svg xmlns="http://www.w3.org/2000/svg" xmlns:xlink="http://www.w3.org/1999/xlink" version="1.1" x="0px" y="0px" viewBox="0 0 100 125" style="enable-background:new 0 0 100 100;" xml:space="preserve"><g><g><path d="M90.1,14.4H9.9c-4.9,0-8.9,4-8.9,8.9v53.5c0,4.9,4,8.9,8.9,8.9h80.2c4.9,0,8.9-4,8.9-8.9V23.3C99,18.4,95,14.4,90.1,14.4z     M9.9,18.8h80.2c0.5,0,1,0.1,1.5,0.3L53,57.6c-0.8,0.8-1.9,1.3-3,1.3s-2.2-0.4-3-1.3L8.4,19.1C8.9,18.9,9.4,18.8,9.9,18.8z     M5.5,76.7V23.3c0-0.3,0-0.5,0.1-0.8L33,50L5.5,77.5C5.5,77.2,5.5,77,5.5,76.7z M90.1,81.2H9.9c-0.5,0-1-0.1-1.5-0.3l27.8-27.8    l7.6,7.6c1.7,1.7,3.9,2.6,6.2,2.6c2.2,0,4.5-0.9,6.2-2.6l7.6-7.6l27.8,27.8C91.1,81.1,90.6,81.2,90.1,81.2z M94.5,76.7    c0,0.3,0,0.5-0.1,0.8L67,50l27.5-27.5c0,0.3,0.1,0.5,0.1,0.8L94.5,76.7L94.5,76.7z"/></g></g></svg>