<?xml version="1.0" encoding="utf-8"?>
<!-- Generator: Adobe Illustrator 22.0.1, SVG Export Plug-In . SVG Version: 6.00 Build 0)  -->
<svg version="1.1" id="Layer_1" xmlns="http://www.w3.org/2000/svg" xmlns:xlink="http://www.w3.org/1999/xlink" x="0px" y="0px"
	 viewBox="0 0 36.3 50" style="enable-background:new 0 0 36.3 50;" xml:space="preserve">
<g>
	<path d="M18.2,9.6c5.9,0,8.9,7.2,4.7,11.4c-2.6,2.6-6.8,2.6-9.5,0C9.2,16.8,12.2,9.6,18.2,9.6 M35.4,12C32.9,4.6,25.4,0,18,0
		S3.2,4.4,0.8,11.9C-3.4,24.8,9.5,40.7,18.4,50C27.2,40.7,39.8,25,35.4,12z M18,2.8c6.3,0,12.6,3.9,14.7,10.1
		c3.7,11-7.3,25.1-14.4,32.9C10.7,37.4,0,23.5,3.5,12.7C5.5,6.6,11.7,2.8,18,2.8z M24.9,23c6-6,1.7-16.3-6.7-16.3S5.4,17,11.4,23
		C15.2,26.8,21.2,26.8,24.9,23z"/>
</g>
</svg>
