<svg xmlns="http://www.w3.org/2000/svg" xmlns:xlink="http://www.w3.org/1999/xlink" version="1.1" x="0px" y="0px" viewBox="0 0 50 62.5" enable-background="new 0 0 50 50" xml:space="preserve"><g><path fill-rule="evenodd" clip-rule="evenodd" d="M25,9.614c5.93,0,8.942,7.215,4.731,11.423c-2.619,2.617-6.845,2.618-9.464,0.001   C16.056,16.83,19.07,9.614,25,9.614 M42.273,11.996C39.774,4.573,32.316,0.037,24.889,0C17.453-0.037,10.042,4.428,7.648,11.852   C3.459,24.836,16.352,40.684,25.177,50C34.034,40.666,46.643,24.979,42.273,11.996z M24.875,2.84   c6.345,0.032,12.635,3.91,14.706,10.063c3.703,11-7.258,25.063-14.403,32.925c-7.613-8.383-18.31-22.309-14.828-33.103   C12.334,6.574,18.574,2.808,24.875,2.84z M31.738,23.046C37.744,17.043,33.435,6.775,25,6.775s-12.745,10.267-6.74,16.272   C21.988,26.77,28.011,26.77,31.738,23.046z"/></g></svg>