<svg version="1.1"  xmlns="http://www.w3.org/2000/svg" xmlns:xlink="http://www.w3.org/1999/xlink" 
	 viewBox="0 264.4 595.445 313.09" enable-background="new 0 264.4 595.445 313.09"
	 xml:space="preserve">
<path fill="#dddddd" d="M424.103,493.945c0.326-0.49,0.816-0.326,1.307-0.49c2.617-0.164,4.906-1.309,6.703-3.27
	c1.145-1.309,1.799-2.943,1.963-4.742c0-0.654,0.164-1.471,0.164-2.125c0-0.326,0.162-0.654,0.652-0.654
	c0.328,0,0.654,0.328,0.654,0.654c0,0.98,0.164,1.799,0.328,2.779c0.326,1.963,1.307,3.76,2.779,5.068
	c1.635,1.471,3.596,2.125,5.885,2.289c0.164,0,0.49,0,0.654,0.164c0.328,0,0.654,0.162,0.654,0.652c0,0.328-0.164,0.492-0.654,0.492
	c-0.816,0.162-1.799,0.162-2.615,0.326c-1.963,0.49-3.76,1.635-5.068,3.27c-0.98,1.309-1.635,2.943-1.799,4.578
	c0,0.654-0.164,1.309-0.164,1.963c0,0.162-0.162,0.326-0.326,0.49c-0.164,0-0.328,0-0.49,0c-0.164-0.164-0.328-0.328-0.328-0.654
	c-0.162-0.818-0.162-1.635-0.162-2.453c-0.164-1.635-0.818-3.105-1.963-4.414c-1.799-2.125-4.25-3.105-6.867-3.27
	c-0.326,0-0.816,0-0.98-0.328C424.103,494.271,424.103,494.109,424.103,493.945z"/>
<path fill="#dddddd" d="M463.667,322.767c0.328-0.49,0.818-0.327,1.309-0.49c2.615-0.164,4.904-1.308,6.703-3.27
	c1.145-1.308,1.799-2.943,1.961-4.741c0-0.654,0.164-1.472,0.164-2.125c0-0.327,0.164-0.654,0.654-0.654
	c0.326,0,0.654,0.327,0.654,0.654c0,0.981,0.164,1.798,0.326,2.779c0.328,1.962,1.309,3.76,2.779,5.068
	c1.635,1.471,3.598,2.125,5.887,2.289c0.164,0,0.49,0,0.654,0.163c0.326,0,0.654,0.164,0.654,0.654c0,0.327-0.164,0.49-0.654,0.49
	c-0.818,0.164-1.799,0.164-2.617,0.327c-1.961,0.491-3.76,1.635-5.068,3.27c-0.98,1.308-1.635,2.943-1.797,4.578
	c0,0.654-0.164,1.308-0.164,1.962c0,0.164-0.164,0.327-0.328,0.491c-0.162,0-0.326,0-0.49,0c-0.162-0.164-0.326-0.327-0.326-0.654
	c-0.164-0.817-0.164-1.635-0.164-2.452c-0.164-1.635-0.816-3.106-1.961-4.415c-1.799-2.125-4.252-3.106-6.867-3.27
	c-0.328,0-0.818,0-0.98-0.327C463.667,323.094,463.667,322.931,463.667,322.767z"/>
<path fill="#dddddd" d="M525.796,275.681c0.326-0.491,0.816-0.327,1.307-0.491c2.617-0.164,4.904-1.308,6.703-3.27
	c1.145-1.308,1.799-2.943,1.963-4.741c0-0.654,0.164-1.471,0.164-2.125c0-0.327,0.162-0.654,0.652-0.654
	c0.328,0,0.654,0.327,0.654,0.654c0,0.981,0.164,1.799,0.328,2.779c0.326,1.962,1.307,3.761,2.779,5.068
	c1.635,1.472,3.596,2.125,5.885,2.289c0.164,0,0.49,0,0.654,0.164c0.326,0,0.654,0.164,0.654,0.654c0,0.327-0.164,0.491-0.654,0.491
	c-0.818,0.164-1.799,0.164-2.615,0.327c-1.963,0.491-3.762,1.635-5.068,3.27c-0.982,1.308-1.635,2.943-1.799,4.578
	c0,0.654-0.164,1.308-0.164,1.962c0,0.164-0.164,0.327-0.326,0.491c-0.164,0-0.328,0-0.49,0c-0.164-0.164-0.328-0.327-0.328-0.654
	c-0.164-0.817-0.164-1.635-0.164-2.453c-0.162-1.635-0.816-3.106-1.961-4.414c-1.799-2.125-4.25-3.106-6.867-3.27
	c-0.326,0-0.816,0-0.98-0.327C525.796,276.008,525.796,275.845,525.796,275.681z"/>
<path  fill="#dddddd"  d="M583.181,324.075c0.164-0.327,0.49-0.164,0.818-0.327c1.471-0.164,2.779-0.654,3.76-1.962
	c0.654-0.817,0.98-1.635,1.145-2.616c0-0.491,0-0.818,0.164-1.308c0-0.164,0.164-0.327,0.326-0.327c0.164,0,0.328,0.164,0.328,0.327
	c0,0.49,0,0.981,0.162,1.635c0.164,1.145,0.654,2.125,1.637,2.78c0.98,0.817,2.125,1.308,3.27,1.308c0.162,0,0.326,0,0.326,0
	c0.164,0,0.328,0.164,0.328,0.327s-0.164,0.327-0.328,0.327c-0.49,0-0.98,0.163-1.471,0.163c-1.145,0.327-2.125,0.818-2.779,1.799
	c-0.49,0.817-0.982,1.635-0.982,2.616c0,0.327,0,0.817-0.162,1.145c0,0.164-0.164,0.164-0.164,0.327c-0.164,0-0.164,0-0.326,0
	c0-0.164-0.164-0.164-0.164-0.327c0-0.491,0-0.981-0.164-1.472c-0.164-0.981-0.49-1.798-1.145-2.452
	c-0.98-1.308-2.451-1.635-3.924-1.798C583.671,324.239,583.345,324.239,583.181,324.075
	C583.181,324.239,583.181,324.075,583.181,324.075z"/>
<path fill="#dddddd"  d="M553.263,428.384c0.49-0.818,1.145-0.49,1.797-0.654c3.762-0.326,6.867-1.799,9.156-4.578
	c1.471-1.798,2.453-4.087,2.615-6.54c0.164-0.981,0.164-1.962,0.328-2.943c0-0.49,0.326-0.817,0.816-0.817
	c0.492,0,0.818,0.327,0.818,0.981c0.164,1.308,0.164,2.616,0.326,3.76c0.492,2.78,1.635,5.068,3.762,7.031
	c2.289,1.961,5.068,3.105,8.01,3.27c0.328,0,0.654,0.162,0.982,0.162c0.49,0,0.816,0.328,0.816,0.818s-0.326,0.654-0.816,0.818
	c-1.145,0.162-2.453,0.326-3.598,0.49c-2.779,0.654-5.232,2.125-6.867,4.578c-1.471,1.961-2.125,4.086-2.451,6.375
	c0,0.98-0.164,1.799-0.328,2.779c0,0.164-0.162,0.49-0.326,0.654c-0.328,0-0.49,0-0.818,0c-0.162-0.326-0.326-0.49-0.49-0.818
	c-0.164-1.143-0.164-2.287-0.326-3.432c-0.328-2.289-1.145-4.416-2.779-6.213c-2.453-2.943-5.887-4.252-9.482-4.578
	c-0.492,0-1.145,0-1.473-0.49C553.263,428.875,553.263,428.71,553.263,428.384z"/>
<path  fill="#dddddd"  d="M313.417,429.693c0.49-0.818,1.145-0.492,1.799-0.654c3.76-0.328,6.865-1.799,9.154-4.578
	c1.473-1.799,2.453-4.087,2.617-6.54c0.162-0.981,0.162-1.962,0.326-2.943c0-0.491,0.328-0.817,0.818-0.817s0.816,0.327,0.816,0.981
	c0.164,1.308,0.164,2.616,0.328,3.76c0.49,2.78,1.635,5.069,3.76,7.03c2.289,1.963,5.068,3.107,8.012,3.27
	c0.326,0,0.654,0.164,0.98,0.164c0.49,0,0.816,0.328,0.816,0.818s-0.326,0.652-0.816,0.816c-1.145,0.164-2.453,0.328-3.598,0.49
	c-2.779,0.654-5.23,2.127-6.865,4.578c-1.473,1.963-2.127,4.088-2.453,6.377c0,0.98-0.164,1.799-0.326,2.779
	c0,0.164-0.164,0.49-0.328,0.654c-0.326,0-0.49,0-0.816,0c-0.164-0.328-0.328-0.49-0.492-0.818
	c-0.162-1.145-0.162-2.289-0.326-3.434c-0.326-2.289-1.145-4.414-2.779-6.213c-2.453-2.941-5.887-4.25-9.482-4.578
	c-0.49,0-1.145,0-1.471-0.49C313.417,430.183,313.417,429.855,313.417,429.693z"/>
<path  fill="#dddddd" d="M163.657,448.984c0.327-0.49,0.817-0.326,1.308-0.49c2.616-0.164,5.068-1.309,6.704-3.27
	c1.145-1.309,1.798-2.943,1.962-4.742c0-0.654,0.164-1.471,0.164-2.125c0-0.326,0.163-0.654,0.654-0.654
	c0.327,0,0.654,0.328,0.654,0.654c0,0.98,0.164,1.799,0.327,2.779c0.327,1.963,1.308,3.76,2.779,5.068
	c1.635,1.471,3.597,2.289,5.886,2.289c0.164,0,0.491,0,0.654,0.164c0.327,0,0.654,0.162,0.654,0.654c0,0.326-0.164,0.49-0.654,0.652
	c-0.817,0.164-1.798,0.164-2.616,0.328c-2.125,0.49-3.76,1.635-5.068,3.27c-0.981,1.309-1.635,2.943-1.798,4.742
	c0,0.652-0.164,1.307-0.164,2.125c0,0.162-0.164,0.326-0.327,0.49c-0.164,0-0.327,0-0.491,0c-0.164-0.164-0.327-0.328-0.327-0.654
	c-0.163-0.816-0.163-1.635-0.327-2.453c-0.164-1.635-0.817-3.105-1.962-4.414c-1.798-2.125-4.251-3.105-7.03-3.27
	c-0.327,0-0.817,0-0.981-0.326C163.657,449.312,163.657,449.148,163.657,448.984z"/>
</svg>
