<svg xmlns="http://www.w3.org/2000/svg" data-name="Layer 2" viewBox="0 0 32 40" x="0px" y="0px"><title>Socialmedia Iconset</title><path d="M23,31a7.9,7.9,0,0,1-4.8-1.61A13.4,13.4,0,0,1,2.91,14.1,7.94,7.94,0,0,1,14.1,2.9,13.4,13.4,0,0,1,29.38,18.25,7.94,7.94,0,0,1,23,31Zm-4.24-3.75,0.37,0.32a5.94,5.94,0,0,0,8.38-8.38l-0.32-.37,0.09-.48A11.4,11.4,0,0,0,14,5l-0.51.1-0.37-.37a5.94,5.94,0,0,0-8.4,8.4l0.37,0.38L5,14A11.4,11.4,0,0,0,18.33,27.33Z"/><path d="M20.66,22.79a6.67,6.67,0,0,1-4.35,1.34,10.54,10.54,0,0,1-3.69-.67,10.18,10.18,0,0,1-3.24-1.95L11.5,19a9.9,9.9,0,0,0,2.36,1.47,6.3,6.3,0,0,0,2.52.51,3.15,3.15,0,0,0,1.73-.41,1.28,1.28,0,0,0,.63-1.13v0a1.29,1.29,0,0,0-.26-0.82,2.39,2.39,0,0,0-1-.62,17.08,17.08,0,0,0-2.06-.64,18.45,18.45,0,0,1-3-1,4.25,4.25,0,0,1-1.77-1.47A4.39,4.39,0,0,1,10,12.3v0a4.55,4.55,0,0,1,.74-2.58,4.91,4.91,0,0,1,2-1.73,6.77,6.77,0,0,1,3-.62,9.41,9.41,0,0,1,6.07,2.08l-1.87,2.71A7.6,7.6,0,0,0,15.7,10.5a2.61,2.61,0,0,0-1.55.4,1.21,1.21,0,0,0-.55,1v0a1.29,1.29,0,0,0,.29.88,2.55,2.55,0,0,0,1,.62,19.89,19.89,0,0,0,2.22.65A9.93,9.93,0,0,1,21,15.91,3.89,3.89,0,0,1,22.3,19v0A4.54,4.54,0,0,1,20.66,22.79Z"/><path d="M16.3,24.63a11.1,11.1,0,0,1-3.86-.7,10.72,10.72,0,0,1-3.4-2l-0.36-.32,2.75-3.3,0.38,0.31A9.47,9.47,0,0,0,14.05,20a5.83,5.83,0,0,0,2.32.47,2.69,2.69,0,0,0,1.46-.33,0.78,0.78,0,0,0,.4-0.71,0.86,0.86,0,0,0-.15-0.56,1.9,1.9,0,0,0-.76-0.46,16.67,16.67,0,0,0-2-.62,19,19,0,0,1-3.08-1,4.77,4.77,0,0,1-2-1.64,4.9,4.9,0,0,1-.73-2.79,5.11,5.11,0,0,1,.82-2.9,5.43,5.43,0,0,1,2.23-1.9,7.29,7.29,0,0,1,3.17-.67A9.94,9.94,0,0,1,22.12,9l0.36,0.29-2.42,3.5-0.41-.29a7.17,7.17,0,0,0-4-1.52,2.16,2.16,0,0,0-1.26.3,0.72,0.72,0,0,0-.34.62,0.86,0.86,0,0,0,.17.59,2.06,2.06,0,0,0,.82.48,19.46,19.46,0,0,0,2.16.63,10.47,10.47,0,0,1,4.13,1.89A4.38,4.38,0,0,1,22.8,19,5.07,5.07,0,0,1,21,23.18,7.19,7.19,0,0,1,16.3,24.63Zm-6.23-3.17A9.71,9.71,0,0,0,12.79,23a10.1,10.1,0,0,0,3.51.63,6.22,6.22,0,0,0,4-1.23,4,4,0,0,0,1.46-3.33,3.42,3.42,0,0,0-1.09-2.78A9.51,9.51,0,0,0,17,14.6a20,20,0,0,1-2.27-.67,3,3,0,0,1-1.21-.76A1.77,1.77,0,0,1,13.1,12a1.74,1.74,0,0,1,.75-1.48A3.1,3.1,0,0,1,15.7,10a7.73,7.73,0,0,1,4.12,1.42l1.32-1.91a9,9,0,0,0-5.38-1.69A6.3,6.3,0,0,0,13,8.4,4.44,4.44,0,0,0,11.18,10a4.08,4.08,0,0,0-.65,2.3,4,4,0,0,0,.56,2.27,3.77,3.77,0,0,0,1.57,1.3,18,18,0,0,0,2.92,1,17.42,17.42,0,0,1,2.13.66,2.82,2.82,0,0,1,1.17.77,1.78,1.78,0,0,1,.36,1.13,1.8,1.8,0,0,1-.86,1.6,3.65,3.65,0,0,1-2,.49,6.82,6.82,0,0,1-2.72-.55,10.09,10.09,0,0,1-2.09-1.24Z"/><text x="0" y="47" fill="#000000" font-size="5px" font-weight="bold" font-family="'Helvetica Neue', Helvetica, Arial-Unicode, Arial, Sans-serif">Created by nico bayu saputro</text><text x="0" y="52" fill="#000000" font-size="5px" font-weight="bold" font-family="'Helvetica Neue', Helvetica, Arial-Unicode, Arial, Sans-serif">from the Noun Project</text></svg>